<svg width="84" height="83" viewBox="0 0 84 83" fill="none" xmlns="http://www.w3.org/2000/svg">
<path d="M73.4618 16.0753H68.1408C67.8233 16.0753 67.5636 15.8187 67.5636 15.5051V10.2474C67.5636 8.67348 66.2709 7.39612 64.678 7.39612H59.4262C57.8334 7.39612 56.5406 8.67348 56.5406 10.2474V15.5051C56.5406 15.8187 56.2809 16.0753 55.9635 16.0753H50.6424C49.0496 16.0753 47.7568 17.3527 47.7568 18.9266V24.1159C47.7568 25.6898 49.0496 26.9671 50.6424 26.9671H55.9635C56.2809 26.9671 56.5406 27.2237 56.5406 27.5374V32.7951C56.5406 34.369 57.8334 35.6463 59.4262 35.6463H64.678C66.2709 35.6463 67.5636 34.369 67.5636 32.7951V27.5374C67.5636 27.2237 67.8233 26.9671 68.1408 26.9671H73.4618C75.0547 26.9671 76.3474 25.6898 76.3474 24.1159V18.9266C76.3474 17.3527 75.0547 16.0753 73.4618 16.0753Z" fill="#F66490"/>
<path d="M78.2231 41.2747H70.5762C67.8002 41.2747 65.4687 43.2421 64.9031 45.928C62.6235 56.8369 52.4777 64.9116 40.5832 64.0962C29.162 63.3206 19.9107 54.1795 19.1258 42.8942C18.3063 31.1414 26.4726 21.1164 37.5129 18.8639C40.2312 18.3107 42.2222 16.0069 42.2222 13.2583V5.70248C42.2222 2.19544 39.0481 -0.484739 35.5392 0.0684047C15.0745 3.29032 -0.496279 21.0365 0.0115874 42.2841C0.536768 64.4155 18.8084 82.4696 41.2065 82.9886C62.7043 83.4904 80.6701 68.105 83.925 47.8782C84.4848 44.4111 81.7724 41.2747 78.2231 41.2747Z" fill="#26ABA2"/>
</svg>
