<svg width="222" height="72" viewBox="0 0 222 72" fill="none" xmlns="http://www.w3.org/2000/svg">
<path d="M62.4712 14.4094H57.9462C57.6763 14.4094 57.4554 14.1885 57.4554 13.9186V9.3936C57.4554 8.03905 56.3561 6.9397 55.0015 6.9397H50.5354C49.1809 6.9397 48.0815 8.03905 48.0815 9.3936V13.9186C48.0815 14.1885 47.8607 14.4094 47.5907 14.4094H43.0657C41.7112 14.4094 40.6118 15.5087 40.6118 16.8633V21.3294C40.6118 22.684 41.7112 23.7833 43.0657 23.7833H47.5907C47.8607 23.7833 48.0815 24.0042 48.0815 24.2741V28.7991C48.0815 30.1537 49.1809 31.253 50.5354 31.253H55.0015C56.3561 31.253 57.4554 30.1537 57.4554 28.7991V24.2741C57.4554 24.0042 57.6763 23.7833 57.9462 23.7833H62.4712C63.8258 23.7833 64.9251 22.684 64.9251 21.3294V16.8633C64.9251 15.5087 63.8258 14.4094 62.4712 14.4094Z" fill="#F66490"/>
<path d="M221.75 62.4323L202.324 3.37657C201.662 1.36437 199.782 0 197.662 0H187.39C185.309 0 183.459 1.31039 182.762 3.2686L164.466 54.9675C164.318 55.3798 163.749 55.4092 163.563 55.0166L157.143 41.6526C157.06 41.4808 157.089 41.2747 157.212 41.1275C158.007 40.1803 158.733 39.1643 159.415 38.1141C161.776 34.4725 162.954 30.0211 162.954 24.7648C162.954 19.5086 161.771 15.1406 159.415 11.4647C157.055 7.7887 153.884 4.99125 149.909 3.07229C145.929 1.14843 141.448 0.191405 136.457 0.191405H115.878C114.656 0.191405 113.542 0.642923 112.683 1.3791C111.535 2.27723 110.794 3.67104 110.794 5.24154V40.6858C110.794 45.0684 109.798 48.4745 107.81 50.8989C105.822 53.3283 102.804 54.5405 98.7598 54.5405C94.7158 54.5405 91.7809 53.3283 89.7589 50.8989C87.7369 48.4696 86.7259 45.0684 86.7259 40.6858V5.25136C86.7259 2.54225 84.5272 0.343547 81.8181 0.343547H75.2514C72.5423 0.343547 70.3436 2.54225 70.3436 5.25136V37.9276C69.4504 36.8184 68.086 36.097 66.5253 36.097H60.0225C57.6618 36.097 55.6791 37.7902 55.1981 40.1017C53.2595 49.4904 44.6316 56.4398 34.5166 55.738C24.804 55.0706 16.9368 47.2033 16.2693 37.4908C15.6019 27.7782 22.517 18.7478 31.9056 16.8093C34.2172 16.3332 35.9104 14.3504 35.9104 11.9849V5.48203C35.9104 2.46372 33.2111 0.15705 30.2272 0.633108C12.8142 3.40602 -0.431949 18.6939 0.00975397 36.9853C0.466181 55.8951 15.7884 71.3645 34.6933 71.9878C51.8657 72.5571 66.4419 61.0581 70.6135 45.3286C71.0454 49.7014 71.9926 53.5246 73.4748 56.7736C75.5655 61.3575 78.7163 64.7978 82.9321 67.0898C87.1431 69.3817 92.4189 70.5302 98.7598 70.5302C105.101 70.5302 110.455 69.3817 114.637 67.0898C118.818 64.7978 121.969 61.3624 124.094 56.7736C126.219 52.1897 127.279 46.4917 127.279 39.6797V16.5639C127.279 16.2939 127.5 16.0731 127.77 16.0731H135.549C138.989 16.0731 141.634 16.8142 143.49 18.2963C145.345 19.7785 146.258 21.3833 146.258 24.2151C146.258 27.047 146.498 29.4714 145.512 31.0517C144.407 32.8185 142.935 33.9473 141.482 34.8062C139.19 36.1313 138.68 39.7729 140.01 42.7372L151.185 66.1426C151.985 67.8112 153.673 68.8713 155.524 68.8713H172.426C174.527 68.8713 176.397 67.5315 177.074 65.5438L191.944 21.8496C192.097 21.3981 192.74 21.4079 192.877 21.8643L206.324 65.4113C206.957 67.4677 208.862 68.8713 211.011 68.8713H217.092C220.434 68.8713 222.8 65.6027 221.755 62.4323H221.75Z" fill="#26ABA2"/>
</svg>
