<svg width="160" height="151" viewBox="0 0 160 151" fill="none" xmlns="http://www.w3.org/2000/svg">
  <g clip-path="url(#clip0_993_5621)">
    <path d="M81.5781 96.5583C73.6685 96.5583 68.2415 88.7169 67.26 78.8149L60.3896 17.7434C60.3896 8.01314 66.8559 0 74.7077 0H88.6216C96.5312 0 102.94 7.9559 102.94 17.7434L95.8962 78.8149C94.3951 89.4037 89.4299 96.5583 81.5781 96.5583Z" fill="#09C1CB"/>
    <path d="M81.1165 143.95C92.1171 143.95 101.035 135.109 101.035 124.204C101.035 113.298 92.1171 104.457 81.1165 104.457C70.116 104.457 61.1982 113.298 61.1982 124.204C61.1982 135.109 70.116 143.95 81.1165 143.95Z" fill="#09C1CB"/>
    <path d="M61.0827 99.1913L36.0838 78.8723L27.5969 87.0571L0 66.0513L25.634 105.659L34.0631 98.1611L45.2636 112.299L61.0827 99.1913Z" fill="#09C1CB"/>
    <path d="M115.757 114.531L108.887 98.1038L144.047 86.542L115.757 114.531Z" fill="#09C1CB"/>
    <path d="M47.573 126.665L53.6928 142.634L10.5654 148.815L47.573 126.665Z" fill="#09C1CB"/>
    <path d="M105.826 144.58L114.255 123.746L159.23 150.132L105.826 144.58Z" fill="#09C1CB"/>
  </g>
  <defs>
    <clipPath id="clip0_993_5621">
      <rect width="159.231" height="150.132" fill="white"/>
    </clipPath>
  </defs>
</svg>