<svg width="170" height="154" viewBox="0 0 170 154" fill="none" xmlns="http://www.w3.org/2000/svg">
<path d="M103.011 87.108C109.705 87.108 115.132 81.6829 115.132 74.9908C115.132 68.2986 109.705 62.8735 103.011 62.8735C96.3172 62.8735 90.8905 68.2986 90.8905 74.9908C90.8905 81.6829 96.3172 87.108 103.011 87.108Z" fill="#EF5B3B"/>
<path d="M101.866 89.1732L91.4465 78.1772C89.0977 75.6984 85.1836 75.5925 82.7041 77.9407L65.6441 94.097C63.1646 96.4451 63.0587 100.358 65.4076 102.837L75.8272 113.833C78.176 116.312 82.0901 116.417 84.5696 114.069L101.63 97.913C104.109 95.5649 104.215 91.6519 101.866 89.1732Z" fill="#EF5B3B"/>
<path d="M84.1469 106.156L84.1044 106.111C81.8025 103.682 77.9667 103.578 75.5368 105.879L54.0322 126.245C51.6024 128.546 51.4986 132.381 53.8004 134.81L53.8429 134.855C56.1448 137.284 59.9806 137.388 62.4105 135.086L83.9151 114.721C86.345 112.42 86.4488 108.585 84.1469 106.156Z" fill="#EF5B3B"/>
<path d="M81.1815 77.4637C81.1815 80.2293 83.4242 82.4713 86.1906 82.4713C88.9571 82.4713 91.1997 80.2293 91.1997 77.4637V55.8876C91.1997 53.122 88.9571 50.88 86.1906 50.88C83.4242 50.88 81.1815 53.122 81.1815 55.8876V77.4637Z" fill="#EF5B3B"/>
<path d="M96.6919 115.933C97.0415 118.677 99.5496 120.617 102.294 120.268C105.038 119.918 106.979 117.411 106.63 114.667L103.902 93.2643C103.553 90.5209 101.045 88.5802 98.3005 88.9297C95.5562 89.2792 93.6149 91.7865 93.9645 94.53L96.6919 115.933Z" fill="#EF5B3B"/>
<path d="M85.0155 18.5468C87.3036 18.5468 89.5298 19.6596 90.8285 21.947L120.698 73.6307L150.567 125.314C153.164 129.827 149.948 135.453 144.754 135.453H25.2774C20.0828 135.453 16.867 129.827 19.4644 125.314L49.3334 73.6307L79.1406 21.947C80.4393 19.7214 82.7274 18.5468 84.9536 18.5468M84.9536 0C75.9249 0 67.5764 4.82216 63.062 12.6736L33.193 64.3573L3.38578 116.041C-1.12859 123.831 -1.12859 133.537 3.38578 141.326C7.90015 149.116 16.3105 154 25.2774 154H144.692C153.72 154 162.069 149.178 166.583 141.326C171.098 133.537 171.098 123.831 166.583 116.041L136.714 64.3573L106.845 12.6736C102.331 4.88398 93.9205 0 84.9536 0Z" fill="#EF5B3B"/>
<path d="M74.3526 97.6836L74.343 97.6225C73.8229 94.3171 70.7209 92.059 67.4145 92.579L41.6348 96.6332C38.3284 97.1532 36.0696 100.254 36.5898 103.56L36.5994 103.621C37.1195 106.926 40.2215 109.184 43.5279 108.664L69.3077 104.61C72.6141 104.09 74.8728 100.989 74.3526 97.6836Z" fill="#EF5B3B"/>
</svg>
