<svg width="44" height="44" viewBox="0 0 44 44" fill="none" xmlns="http://www.w3.org/2000/svg">
<path fill-rule="evenodd" clip-rule="evenodd" d="M22 44C34.1503 44 44 34.1503 44 22C44 9.84974 34.1503 0 22 0C9.84974 0 0 9.84974 0 22C0 34.1503 9.84974 44 22 44ZM7.33333 22C7.33333 20.4865 8.56023 19.2596 10.0737 19.2596H19.2596V10.0737C19.2596 8.56023 20.4865 7.33333 22 7.33333C23.5135 7.33333 24.7404 8.56023 24.7404 10.0737V19.2596H33.9153C35.4288 19.2596 36.6557 20.4865 36.6557 22C36.6557 23.5135 35.4288 24.7404 33.9153 24.7404H24.7404V33.9153C24.7404 35.4288 23.5135 36.6557 22 36.6557C20.4865 36.6557 19.2596 35.4288 19.2596 33.9153V24.7404H10.0737C8.56023 24.7404 7.33333 23.5135 7.33333 22Z" fill="currentColor"/>
</svg>
