<svg width="38" height="44" viewBox="0 0 38 44" fill="none" xmlns="http://www.w3.org/2000/svg">
<path d="M18.9645 21.3747C25.0028 21.3747 29.8978 16.5898 29.8978 10.6874C29.8978 4.7849 25.0028 0 18.9645 0C12.9262 0 8.03117 4.7849 8.03117 10.6874C8.03117 16.5898 12.9262 21.3747 18.9645 21.3747Z" fill="currentColor"/>
<path d="M30.2413 22.3937C27.4695 22.3937 24.1646 26.0989 18.9882 26.0989C13.8117 26.0989 10.5069 22.3937 7.73504 22.3937H7.37967C2.79551 22.3937 0 25.7168 0 30.1979V41.0821C0 42.6916 1.33853 44 2.98504 44H35.015C36.6615 44 38 42.6916 38 41.0821V30.1979C38 25.7168 35.1926 22.3937 30.6203 22.3937H30.2413Z" fill="currentColor"/>
</svg>
