<svg width="24" height="44" viewBox="0 0 24 44" fill="none" xmlns="http://www.w3.org/2000/svg">
<path d="M12.0965 12.0149C15.464 12.0149 18.1939 9.32528 18.1939 6.00746C18.1939 2.68963 15.464 0 12.0965 0C8.7291 0 5.99924 2.68963 5.99924 6.00746C5.99924 9.32528 8.7291 12.0149 12.0965 12.0149Z" fill="currentColor"/>
<path d="M15.6316 11.1604L8.01 11.1735C6.29192 11.1765 4.90157 12.5511 4.90457 14.2439L4.9252 25.891C4.9282 27.5838 6.32341 28.9536 8.04149 28.9507L15.6631 28.9376C17.3812 28.9346 18.7716 27.56 18.7686 25.8672L18.7479 14.2201C18.7449 12.5273 17.3497 11.1575 15.6316 11.1604Z" fill="currentColor"/>
<path d="M15.7153 23.2978L15.6842 23.2978C14.0005 23.3007 12.638 24.6479 12.6409 26.3068L12.6669 40.9882C12.6699 42.6472 14.0372 43.9896 15.7209 43.9867L15.752 43.9867C17.4357 43.9838 18.7983 42.6366 18.7953 40.9777L18.7693 26.2962C18.7664 24.6373 17.3991 23.2949 15.7153 23.2978Z" fill="currentColor"/>
<path d="M8.00039 23.311L7.96929 23.3111C6.28556 23.314 4.92302 24.6611 4.92596 26.32L4.95196 41.0015C4.9549 42.6604 6.32221 44.0029 8.00594 44L8.03704 43.9999C9.72077 43.997 11.0833 42.6499 11.0804 40.991L11.0544 26.3095C11.0514 24.6506 9.68412 23.3081 8.00039 23.311Z" fill="currentColor"/>
<path d="M18.7602 24.4225C19.3821 25.6491 20.8954 26.1469 22.1404 25.5342C23.3854 24.9216 23.8906 23.4305 23.2688 22.2039L18.4177 12.6341C17.7959 11.4075 16.2825 10.9097 15.0375 11.5224C13.7925 12.135 13.2873 13.6261 13.9091 14.8528L18.7602 24.4225Z" fill="currentColor"/>
<path d="M9.62576 14.8631C10.2476 13.6364 9.7424 12.1454 8.49739 11.5327C7.25239 10.9201 5.73903 11.4178 5.11721 12.6445L0.266083 22.2142C-0.355737 23.4409 0.149451 24.9319 1.39445 25.5446C2.63945 26.1572 4.15281 25.6595 4.77464 24.4328L9.62576 14.8631Z" fill="currentColor"/>
</svg>
