<svg width="45" height="40" viewBox="0 0 45 40" fill="none" xmlns="http://www.w3.org/2000/svg">
<path fill-rule="evenodd" clip-rule="evenodd" d="M41.1475 22.0018C40.8396 22.3947 40.4998 22.777 40.1387 23.1274L24.2001 39.0872C23.0215 40.2659 21.1101 40.2659 19.9314 39.0872L3.97162 23.1274C3.61059 22.7664 3.27079 22.3947 2.96285 22.0018C-1.30584 16.6713 -0.955429 8.88781 3.97162 3.97137C6.61566 1.33795 10.088 0 13.5496 0C16.1831 0 18.8377 0.775161 21.1101 2.31486C21.6835 2.69714 22.4481 2.69714 23.0108 2.31486C25.2939 0.775161 27.9167 0 30.5501 0C34.033 0 37.4841 1.33795 40.1281 3.97137C45.0658 8.88781 45.4056 16.6607 41.1369 21.9912L41.1475 22.0018ZM22.266 7.55674C23.3706 7.55674 24.266 8.45218 24.266 9.55674V25.1932C24.266 26.2977 23.3706 27.1932 22.266 27.1932C21.1614 27.1932 20.266 26.2977 20.266 25.1932V9.55674C20.266 8.45218 21.1614 7.55674 22.266 7.55674ZM23.7379 32.2803C24.5485 31.459 24.5485 30.1365 23.7379 29.3258C22.9166 28.5152 21.594 28.5152 20.7834 29.3258C19.9728 30.1471 19.9728 31.4697 20.7834 32.2803C21.6047 33.0909 22.9273 33.0909 23.7379 32.2803Z" fill="currentColor"/>
</svg>
