<svg width="42" height="42" viewBox="0 0 42 42" fill="none" xmlns="http://www.w3.org/2000/svg">
<path d="M5 7.89001C5 6.29071 6.29071 5 7.89001 5H24.66C26.0407 5 27.16 3.88074 27.16 2.5C27.16 1.11926 26.0407 0 24.66 0H7.89001C3.5293 0 0 3.5293 0 7.89001V33.48C0 37.8407 3.5293 41.37 7.89001 41.37H33.48C37.8407 41.37 41.37 37.8407 41.37 33.48V18.35C41.37 16.9693 40.2507 15.85 38.87 15.85C37.4893 15.85 36.37 16.9693 36.37 18.35V33.48C36.37 35.0793 35.0793 36.37 33.48 36.37H7.89001C6.29071 36.37 5 35.0793 5 33.48V7.89001Z" fill="currentColor"/>
<path d="M30.51 5.96002L35.78 11.23C36.17 11.62 36.17 12.26 35.78 12.65L18.33 30.1C18.13 30.3 17.88 30.42 17.6 30.46L11.97 31.19C11.15 31.3 10.44 30.6 10.55 29.77L11.28 24.14C11.32 23.86 11.44 23.61 11.64 23.41L29.09 5.96002C29.48 5.57001 30.12 5.57001 30.51 5.96002Z" fill="currentColor"/>
<path d="M40.01 3.21002L38.55 1.75C37.1 0.309998 34.76 0.309998 33.32 1.75L31.05 4.02002C30.75 4.32001 30.75 4.81 31.05 5.10999L36.65 10.71C36.95 11.01 37.44 11.01 37.74 10.71L40.01 8.44C41.45 6.98999 41.45 4.65002 40.01 3.21002Z" fill="currentColor"/>
</svg>
