<svg width="31" height="44" viewBox="0 0 31 44" fill="none" xmlns="http://www.w3.org/2000/svg">
<path d="M14.5448 12.3325C18.0741 12.3325 20.9352 9.57178 20.9352 6.16625C20.9352 2.76072 18.0741 0 14.5448 0C11.0154 0 8.15433 2.76072 8.15433 6.16625C8.15433 9.57178 11.0154 12.3325 14.5448 12.3325Z" fill="currentColor"/>
<path d="M15.835 10.2923L7.84694 10.3058C6.04625 10.3088 4.58906 11.7198 4.5922 13.4573L4.61382 25.4123C4.61697 27.1498 6.07926 28.5559 7.87994 28.5528L15.868 28.5394C17.6687 28.5363 19.1259 27.1253 19.1227 25.3878L19.1011 13.4329C19.098 11.6954 17.6357 10.2893 15.835 10.2923Z" fill="currentColor"/>
<path d="M15.8901 22.7505L15.8575 22.7506C14.0929 22.7536 12.6648 24.1363 12.6679 25.8391L12.6951 40.9086C12.6982 42.6114 14.1313 43.9894 15.8959 43.9864L15.9285 43.9863C17.6932 43.9834 19.1213 42.6006 19.1182 40.8978L19.0909 25.8283C19.0878 24.1255 17.6548 22.7476 15.8901 22.7505Z" fill="currentColor"/>
<path d="M7.80427 22.7642L7.77166 22.7642C6.00699 22.7672 4.57894 24.15 4.58202 25.8527L4.60927 40.9223C4.61235 42.625 6.0454 44.003 7.81007 44L7.84268 43.9999C9.60735 43.997 11.0354 42.6142 11.0323 40.9114L11.0051 25.8419C11.002 24.1391 9.56894 22.7612 7.80427 22.7642Z" fill="currentColor"/>
<path d="M9.56808 14.1705C10.145 12.8779 9.52673 11.3788 8.18712 10.8221C6.84751 10.2654 5.29386 10.862 4.71693 12.1546L0.216054 22.2389C-0.360872 23.5315 0.257403 25.0306 1.59701 25.5873C2.93662 26.144 4.49027 25.5474 5.0672 24.2548L9.56808 14.1705Z" fill="currentColor"/>
<path d="M19.626 23.8898C20.2777 25.1489 21.8638 25.6598 23.1687 25.0309C24.4735 24.4021 25.003 22.8716 24.3513 21.6125L19.2669 11.7898C18.6152 10.5307 17.0291 10.0198 15.7243 10.6487C14.4194 11.2775 13.8899 12.808 14.5416 14.0671L19.626 23.8898Z" fill="currentColor"/>
<path d="M29.3471 43.793C28.4342 43.793 27.7169 43.1008 27.7169 42.2199V27.6852C27.7495 27.1189 27.7169 25.7032 27.0322 25.0111C26.8366 24.8223 26.478 24.5392 25.6955 24.5392C23.3153 24.5392 23.2501 27.3706 23.2501 27.6852C23.2501 28.5661 22.5328 29.2582 21.6199 29.2582C20.707 29.2582 19.9897 28.5661 19.9897 27.6852C19.9897 25.5144 21.1961 21.3931 25.6955 21.3931C27.2279 21.3931 28.532 21.8965 29.445 22.8718C31.2056 24.6965 31.01 27.4964 30.9774 27.811V42.2199C30.9774 43.1008 30.2601 43.793 29.3471 43.793Z" fill="currentColor"/>
</svg>
