<svg width="44" height="40" viewBox="0 0 44 40" fill="none" xmlns="http://www.w3.org/2000/svg">
<path d="M26.6667 22.6255C28.3996 22.6255 29.8044 21.2163 29.8044 19.4781C29.8044 17.7399 28.3996 16.3308 26.6667 16.3308C24.9338 16.3308 23.529 17.7399 23.529 19.4781C23.529 21.2163 24.9338 22.6255 26.6667 22.6255Z" fill="currentColor"/>
<path d="M26.3703 23.1619L23.673 20.3058C23.0649 19.6619 22.0517 19.6344 21.4098 20.2443L16.9935 24.4408C16.3516 25.0507 16.3242 26.067 16.9322 26.7109L19.6296 29.567C20.2376 30.2108 21.2509 30.2383 21.8927 29.6284L26.3091 25.4319C26.9509 24.822 26.9783 23.8057 26.3703 23.1619Z" fill="currentColor"/>
<path d="M21.7833 27.573L21.7723 27.5613C21.1764 26.9304 20.1834 26.9034 19.5544 27.5011L13.9875 32.7909C13.3585 33.3886 13.3316 34.3846 13.9275 35.0155L13.9385 35.0272C14.5344 35.6582 15.5274 35.6851 16.1564 35.0874L21.7233 29.7977C22.3523 29.2 22.3792 28.2039 21.7833 27.573Z" fill="currentColor"/>
<path d="M19.2479 25.3724L19.2454 25.3565C19.1107 24.4979 18.3077 23.9114 17.4518 24.0465L10.7782 25.0995C9.92223 25.2346 9.33751 26.0401 9.47216 26.8986L9.47465 26.9145C9.6093 27.7731 10.4123 28.3596 11.2682 28.2245L17.9419 27.1715C18.7978 27.0364 19.3825 26.2309 19.2479 25.3724Z" fill="currentColor"/>
<path d="M21.0157 20.1204C21.0157 20.8388 21.5962 21.4211 22.3124 21.4211C23.0285 21.4211 23.6091 20.8388 23.6091 20.1204V14.5163C23.6091 13.7979 23.0285 13.2156 22.3124 13.2156C21.5962 13.2156 21.0157 13.7979 21.0157 14.5163V20.1204Z" fill="currentColor"/>
<path d="M25.0308 30.1125C25.1213 30.8251 25.7706 31.3292 26.481 31.2384C27.1914 31.1476 27.694 30.4963 27.6035 29.7837L26.8974 24.2245C26.8069 23.5119 26.1576 23.0078 25.4472 23.0986C24.7368 23.1894 24.2343 23.8407 24.3248 24.5532L25.0308 30.1125Z" fill="currentColor"/>
<path d="M22.008 4.81734C22.6003 4.81734 23.1766 5.10638 23.5128 5.70052L38.9773 32.5492C39.6496 33.7214 38.8172 35.1827 37.4724 35.1827H6.54357C5.19884 35.1827 4.36638 33.7214 5.03875 32.5492L20.4872 5.70052C20.8234 5.12244 21.4157 4.81734 21.992 4.81734M21.992 0C19.6547 0 17.4935 1.25251 16.3249 3.29185L0.876478 30.1405C-0.292159 32.1638 -0.292159 34.6849 0.876478 36.7082C2.04512 38.7314 4.2223 40 6.54357 40H37.4564C39.7937 40 41.9549 38.7475 43.1235 36.7082C44.2922 34.6849 44.2922 32.1638 43.1235 30.1405L27.6591 3.29185C26.4904 1.26857 24.3133 0 21.992 0Z" fill="currentColor"/>
</svg>
