<svg width="43" height="44" viewBox="0 0 43 44" fill="none" xmlns="http://www.w3.org/2000/svg">
<path d="M22.0666 42.4179C25.2484 42.4179 27.8278 39.8144 27.8278 36.6027C27.8278 33.3911 25.2484 30.7875 22.0666 30.7875C18.8847 30.7875 16.3054 33.3911 16.3054 36.6027C16.3054 39.8144 18.8847 42.4179 22.0666 42.4179Z" fill="currentColor"/>
<path d="M15.8454 28.8723L9.3827 23.533C9.19871 23.3821 8.93422 23.3937 8.76173 23.5562L6.89883 25.3785C6.73784 25.541 6.47335 25.5526 6.28936 25.4134L0.75814 21.1419C0.344161 20.8169 -0.207811 21.3276 0.0796742 21.7687L5.73739 30.6598C5.89838 30.9036 6.23186 30.95 6.43885 30.7527L8.09477 29.2554C8.30176 29.0696 8.61224 29.1045 8.77323 29.3134L11.4066 32.7027C11.5676 32.9116 11.8781 32.9465 12.0736 32.7723L15.8339 29.5804C16.0639 29.3946 16.0524 29.0464 15.8339 28.8491L15.8454 28.8723Z" fill="currentColor"/>
<path d="M31.8066 33.0973L30.2886 29.3946C30.1851 29.1393 30.3116 28.8491 30.5761 28.7562L38.3612 26.1678C38.8327 26.0053 39.2007 26.6089 38.8442 26.9571L32.577 33.2598C32.3355 33.5036 31.9331 33.4223 31.8066 33.109V33.0973Z" fill="currentColor"/>
<path d="M12.5795 37.8563L13.925 41.4662C14.0285 41.7563 13.8445 42.0581 13.5455 42.1046L3.97798 43.4974C3.472 43.5671 3.21902 42.8822 3.66749 42.6153L11.8781 37.6126C12.1311 37.4617 12.4645 37.5777 12.568 37.8563H12.5795Z" fill="currentColor"/>
<path d="M29.4377 42.0117L31.4386 36.9858C31.5421 36.7188 31.8641 36.6027 32.117 36.7536L42.7655 43.1144C43.2025 43.3697 42.984 44.0546 42.478 43.9965L29.8287 42.6617C29.5182 42.6269 29.3227 42.3019 29.4377 42.0117Z" fill="currentColor"/>
<path d="M15.8454 7.22484H15.8224L18.1798 24.6589H18.1913C18.2603 25.8544 18.8467 27.0152 19.8932 27.7464C21.7216 29.0348 24.2284 28.5821 25.5049 26.7366C25.8959 26.1794 26.1029 25.541 26.1834 24.9143H26.2063L28.3337 7.07395H28.2992C28.5407 4.83375 27.6323 2.52391 25.6659 1.14265C22.814 -0.865396 18.8812 -0.157355 16.8918 2.72124C15.9489 4.09089 15.6269 5.69269 15.8339 7.22484H15.8454Z" fill="currentColor"/>
</svg>
