<svg width="44" height="44" viewBox="0 0 44 44" fill="currentColor" xmlns="http://www.w3.org/2000/svg">
<path d="M43.5975 2.29072C44.1241 1.77666 44.1355 0.9318 43.6229 0.403675C43.1103 -0.12445 42.2679 -0.135852 41.7413 0.37821L27.4493 14.3298C27.2056 14.5607 26.9378 14.577 26.7299 14.4729L26.7222 14.4691L17.0808 9.7205L17.0688 9.71465C16.0021 9.20256 14.7621 9.30729 13.7856 9.97399L13.7761 9.98058L0.91213 18.9294C0.308297 19.3494 0.158332 20.1809 0.577174 20.7864C0.996017 21.392 1.82506 21.5424 2.42889 21.1224L15.2869 12.1777C15.4918 12.0395 15.7214 12.0286 15.9154 12.1199L25.5415 16.861L25.546 16.8632C26.8354 17.5062 28.2999 17.2052 29.2905 16.257L29.2998 16.2479L43.5975 2.29072Z" fill="currentColor"/>
<path d="M39.6835 13.0546H37.4474C36.0269 13.0546 34.8694 14.3247 34.8694 15.8835V41.171C34.8694 42.7299 36.0269 44 37.4474 44H39.6835C41.1041 44 42.2616 42.7299 42.2616 41.171V15.898C42.2616 14.3391 41.1041 13.069 39.6835 13.069V13.0546Z" fill="currentColor"/>
<path d="M28.4901 20.5166H26.254C24.8334 20.5166 23.676 21.7867 23.676 23.3455V41.1709C23.676 42.7297 24.8334 43.9999 26.254 43.9999H28.4901C29.9106 43.9999 31.0681 42.7297 31.0681 41.1709V23.3455C31.0681 21.7867 29.9106 20.5166 28.4901 20.5166Z" fill="currentColor"/>
<path d="M2.57805 23.6054H4.81411C6.23467 23.6054 7.39216 24.8755 7.39216 26.4343V41.1709C7.39216 42.7298 6.23467 43.9999 4.81411 43.9999H2.57805C1.15749 43.9999 0 42.7298 0 41.1709V26.4343C0 24.8755 1.15749 23.6054 2.57805 23.6054Z" fill="currentColor"/>
<path d="M16.5994 18.2795H14.3634C12.9428 18.2795 11.7853 19.5496 11.7853 21.1085V41.171C11.7853 42.7298 12.9428 44 14.3634 44H16.5994C18.02 44 19.1775 42.7298 19.1775 41.171V21.1085C19.1775 19.5496 18.02 18.2795 16.5994 18.2795Z" fill="currentColor"/>
</svg>
