<svg width="44" height="42" viewBox="0 0 44 42" fill="none" xmlns="http://www.w3.org/2000/svg">
<path d="M39.483 4.54088C36.4653 1.5095 32.5239 0 28.5331 0C26.353 0 24.1605 1.27441 22.1405 2.25188C22.0297 2.30137 21.9188 2.30137 21.808 2.25188C19.788 1.28679 17.6078 0 15.4154 0C11.4246 0 7.45851 1.5095 4.45313 4.54088C1.16446 7.8692 -0.27664 12.3358 0.0436052 16.6911H8.92425L12.9643 9.68802C13.2845 9.13124 13.8881 8.80954 14.5532 8.87141C15.1937 8.93327 15.7356 9.3787 15.945 9.99735L20.1328 22.791L23.2121 17.4954C23.5077 16.9881 24.0497 16.6787 24.6286 16.6787H34.47C35.3814 16.6787 36.1081 17.4211 36.1081 18.3243C36.1081 19.2276 35.3691 19.97 34.47 19.97H25.5647L21.1182 27.5917C20.8226 28.099 20.2806 28.4083 19.7017 28.4083C19.6401 28.4083 19.5909 28.4083 19.5293 28.4083C18.8888 28.3341 18.3468 27.901 18.1498 27.2824L13.962 14.5011L11.2891 19.141C10.9935 19.6483 10.4516 19.9576 9.87267 19.9576H0.597876C0.819584 20.6876 1.07824 21.4176 1.41081 22.1105C2.1252 23.719 3.14752 25.2161 4.46545 26.5276L18.4208 40.5338C20.3792 42.4887 23.5816 42.4887 25.54 40.5338L39.483 26.5276C40.7886 25.2161 41.8233 23.719 42.55 22.1105C45.2228 16.3447 44.2005 9.25497 39.483 4.51613V4.54088Z" fill="currentColor"/>
</svg>
