<svg width="34" height="44" viewBox="0 0 34 44" fill="none" xmlns="http://www.w3.org/2000/svg">
<path d="M17 20.9C15.3898 20.9 13.8455 20.3205 12.7069 19.2891C11.5682 18.2576 10.9286 16.8587 10.9286 15.4C10.9286 13.9413 11.5682 12.5424 12.7069 11.5109C13.8455 10.4795 15.3898 9.9 17 9.9C18.6102 9.9 20.1545 10.4795 21.2931 11.5109C22.4318 12.5424 23.0714 13.9413 23.0714 15.4C23.0714 16.1223 22.9144 16.8375 22.6093 17.5048C22.3042 18.1721 21.8569 18.7784 21.2931 19.2891C20.7294 19.7998 20.0601 20.2049 19.3234 20.4813C18.5868 20.7577 17.7973 20.9 17 20.9ZM17 0C12.4913 0 8.1673 1.6225 4.97918 4.51056C1.79107 7.39862 0 11.3157 0 15.4C0 26.95 17 44 17 44C17 44 34 26.95 34 15.4C34 11.3157 32.2089 7.39862 29.0208 4.51056C25.8327 1.6225 21.5087 0 17 0Z" fill="currentColor"/>
</svg>
