<svg width="35" height="44" viewBox="0 0 35 44" fill="none" xmlns="http://www.w3.org/2000/svg">
<path d="M11.7879 27.257L3.69108 27.9952C2.94159 28.0634 2.3965 28.7221 2.46463 29.4716L2.82803 33.4239C2.99837 35.2864 4.65635 36.6719 6.51873 36.5016L10.5501 36.1382C12.4125 35.9678 13.7979 34.3097 13.6276 32.4472L13.2642 28.4949C13.1961 27.7454 12.5374 27.2002 11.7879 27.2684V27.257Z" fill="currentColor"/>
<path d="M8.50603 0.0117001L7.63162 0.0911988C2.97565 0.511406 -0.77183 6.75773 0.136651 13.8445C0.613604 17.5923 2.01039 24.5087 2.01039 24.5087C2.07853 25.2696 2.82803 25.8147 3.67973 25.7466L11.4018 25.0424C12.2535 24.9629 12.8895 24.2815 12.8213 23.532L12.5828 20.9539C12.4011 18.9665 12.5261 16.9563 12.9803 14.9915C13.6617 12.0501 14.2635 10.2216 13.8206 5.42897C13.5595 2.60109 10.8908 -0.204082 8.50603 0.0117001Z" fill="currentColor"/>
<path d="M31.3089 35.4908L23.2121 34.7526C22.4626 34.6845 21.8039 35.241 21.7358 35.9792L21.3724 39.9314C21.2021 41.7939 22.5875 43.4521 24.4499 43.6224L28.4813 43.9858C30.3437 44.1562 32.0016 42.7706 32.172 40.9081L32.5354 36.9559C32.6035 36.2063 32.0471 35.5476 31.3089 35.4795V35.4908Z" fill="currentColor"/>
<path d="M27.3684 7.58679L26.494 7.50729C24.1092 7.29151 21.4405 10.0967 21.1793 12.9246C20.7365 17.7285 21.3383 19.557 22.0197 22.4871C22.4739 24.4519 22.5988 26.462 22.4172 28.4495L22.1787 31.0275C22.1105 31.7885 22.7465 32.4699 23.5982 32.538L31.3203 33.2422C32.172 33.3216 32.9215 32.7652 32.9896 32.0042C32.9896 32.0042 34.3864 25.0765 34.8633 21.3401C35.7718 14.242 32.0243 8.007 27.3684 7.58679Z" fill="currentColor"/>
</svg>
