<svg width="44" height="42" viewBox="0 0 44 42" fill="none" xmlns="http://www.w3.org/2000/svg">
<path d="M42.5826 22.1216C41.8486 23.7263 40.8212 25.2164 39.5164 26.5427L26.4202 39.6912L25.5884 40.5263C23.6313 42.4912 20.4184 42.4912 18.4613 40.5263L17.6295 39.6912L4.50065 26.5427C3.19591 25.2327 2.16843 23.7263 1.45083 22.1216C-1.22387 16.3579 -0.196396 9.28421 4.50065 4.53567C7.51784 1.50643 11.481 0 15.4604 0C17.6458 0 19.8313 1.27719 21.8373 2.24327C21.9351 2.2924 22.0656 2.2924 22.1635 2.24327C24.1858 1.27719 26.3712 0 28.5404 0C32.5198 0 36.4666 1.50643 39.4838 4.53567C44.1972 9.26784 45.2246 16.3579 42.5499 22.1216H42.5826Z" fill="currentColor"/>
</svg>
