<svg width="38" height="44" viewBox="0 0 38 44" fill="none" xmlns="http://www.w3.org/2000/svg">
<path d="M34.0782 17.7181C33.32 9.55769 25.9513 3.5444 17.6198 4.28706C9.28826 5.02972 3.14889 12.2471 3.90712 20.4075C4.66535 28.5679 12.034 34.5812 20.3656 33.8386C28.6971 33.0959 34.8365 25.8785 34.0782 17.7181Z" fill="currentColor"/>
<path d="M30.4695 22.2249H7.53053C3.37153 22.2249 0 25.5272 0 29.6008C0 33.6744 3.37153 36.9767 7.53053 36.9767H30.4695C34.6285 36.9767 38 33.6744 38 29.6008C38 25.5272 34.6285 22.2249 30.4695 22.2249Z" fill="currentColor"/>
<path d="M14.9246 38.4104H23.0878C23.9935 38.4104 24.713 39.261 24.4525 40.0994C23.733 42.3717 21.5743 44 19.0062 44C16.4381 44 14.3043 42.3717 13.5723 40.1116C13.2994 39.261 14.0314 38.4104 14.937 38.4104H14.9246Z" fill="currentColor"/>
<path d="M18.9938 11.6167C22.2689 11.6167 24.9239 9.01622 24.9239 5.80835C24.9239 2.60049 22.2689 0 18.9938 0C15.7187 0 13.0637 2.60049 13.0637 5.80835C13.0637 9.01622 15.7187 11.6167 18.9938 11.6167Z" fill="currentColor"/>
</svg>
