<svg width="44" height="44" viewBox="0 0 44 44" fill="none" xmlns="http://www.w3.org/2000/svg">
<path d="M41.7367 25.9796L41.6225 25.9339C40.2865 25.2711 39.4301 23.9 39.4301 22.4031V21.7175C39.4301 20.2206 40.2865 18.8609 41.6225 18.1982L41.7823 18.1182C43.6093 17.2269 44.4886 15.0787 43.7235 13.1934C43.6893 13.1134 43.655 13.022 43.6208 12.942C42.8443 11.068 40.6861 10.1768 38.7678 10.8281L38.5965 10.8966C37.1805 11.3766 35.6048 11.0109 34.5428 9.95967L34.0632 9.47976C33.0013 8.41709 32.6359 6.84024 33.1269 5.42336L33.1954 5.24053C33.8577 3.30946 32.9556 1.16128 31.0829 0.372855C31.003 0.338575 30.923 0.304296 30.8431 0.281443C28.959 -0.495558 26.8008 0.395708 25.9102 2.22394L25.8188 2.40677C25.1565 3.75509 23.7977 4.61208 22.3018 4.61208H21.6167C20.1208 4.61208 18.7506 3.75509 18.0883 2.40677L18.0198 2.25822C17.1291 0.429987 14.9595 -0.461278 13.0754 0.327149C12.9955 0.361428 12.9041 0.395708 12.8242 0.429987C10.9629 1.21841 10.0837 3.36659 10.7346 5.27481L10.7916 5.44621C11.2827 6.86309 10.9173 8.43995 9.85531 9.49118L9.37572 9.98252C8.31377 11.0338 6.74939 11.3994 5.33345 10.9195L5.2421 10.8852C3.31232 10.2225 1.15416 11.1252 0.377684 12.9991C0.343428 13.0905 0.309171 13.1705 0.274915 13.2619C-0.490146 15.1359 0.400522 17.284 2.21611 18.1753L2.31888 18.2324C3.65489 18.8837 4.5113 20.2549 4.5113 21.7518V22.4374C4.5113 23.9342 3.65489 25.3054 2.31888 25.9567H2.29605C0.457616 26.8709 -0.421634 29.0305 0.354846 30.9158C0.389103 31.0072 0.423359 31.0987 0.469035 31.1786C1.25693 33.0412 3.40367 33.9324 5.31062 33.2811L5.34487 33.2583C6.77222 32.7783 8.3366 33.144 9.39855 34.1952L9.87814 34.6866C10.9401 35.7378 11.3055 37.3147 10.8145 38.7315C10.666 39.1543 10.5975 39.5885 10.5975 40.0227C10.5975 41.531 11.4654 42.9708 12.9156 43.5878C13.0069 43.6221 13.0983 43.6678 13.1896 43.7021C15.0623 44.4676 17.2204 43.5878 18.1225 41.7596C18.7848 40.3998 20.1437 39.5428 21.6395 39.5428H22.3247C23.8205 39.5428 25.1908 40.3998 25.8531 41.7481V41.7824C26.7552 43.5992 28.9019 44.4905 30.786 43.7249C30.8774 43.6906 30.9687 43.6563 31.0486 43.6106C32.9213 42.8222 33.8234 40.674 33.1611 38.7544V38.7087C32.6587 37.2918 33.0241 35.7264 34.086 34.6637L34.5656 34.1838C35.6276 33.1211 37.192 32.7555 38.6079 33.2468L38.7107 33.2811C40.629 33.9324 42.7644 33.0412 43.5637 31.1786C43.5979 31.0987 43.6322 31.0187 43.6664 30.9273C44.4429 29.0419 43.5637 26.8823 41.7367 25.9796ZM22.0049 31.8756C16.5011 31.8756 12.0477 27.4193 12.0477 21.9232C12.0477 16.4271 16.5011 11.9593 22.0049 11.9593C27.5088 11.9593 31.9507 16.4156 31.9507 21.9232C31.9507 27.4308 27.4974 31.8756 22.0049 31.8756Z" fill="currentColor"/>
</svg>
