<svg width="39" height="44" viewBox="0 0 39 44" fill="none" xmlns="http://www.w3.org/2000/svg">
<path d="M7.93182 14.0173C11.2079 14.0173 13.8636 11.3271 13.8636 8.00863C13.8636 4.69016 11.2079 2 7.93182 2C4.65577 2 2 4.69016 2 8.00863C2 11.3271 4.65577 14.0173 7.93182 14.0173Z" fill="currentColor"/>
<path d="M7.93182 42C11.2079 42 13.8636 39.3098 13.8636 35.9914C13.8636 32.6729 11.2079 29.9827 7.93182 29.9827C4.65577 29.9827 2 32.6729 2 35.9914C2 39.3098 4.65577 42 7.93182 42Z" fill="currentColor"/>
<path d="M31.0682 26.8633C34.3442 26.8633 37 24.1732 37 20.8547C37 17.5362 34.3442 14.846 31.0682 14.846C27.7921 14.846 25.1364 17.5362 25.1364 20.8547C25.1364 24.1732 27.7921 26.8633 31.0682 26.8633Z" fill="currentColor"/>
<path d="M13.3636 10.3914L25.7273 18.2647M25.7273 24.0086L13.3636 31.882M13.8636 8.00863C13.8636 11.3271 11.2079 14.0173 7.93182 14.0173C4.65577 14.0173 2 11.3271 2 8.00863C2 4.69016 4.65577 2 7.93182 2C11.2079 2 13.8636 4.69016 13.8636 8.00863ZM13.8636 35.9914C13.8636 39.3098 11.2079 42 7.93182 42C4.65577 42 2 39.3098 2 35.9914C2 32.6729 4.65577 29.9827 7.93182 29.9827C11.2079 29.9827 13.8636 32.6729 13.8636 35.9914ZM37 20.8547C37 24.1732 34.3442 26.8633 31.0682 26.8633C27.7921 26.8633 25.1364 24.1732 25.1364 20.8547C25.1364 17.5362 27.7921 14.846 31.0682 14.846C34.3442 14.846 37 17.5362 37 20.8547Z" stroke="black" stroke-width="4" stroke-miterlimit="10" stroke-linecap="round"/>
</svg>
