<?xml version="1.0" encoding="UTF-8"?>
<svg id="Layer_2" data-name="Layer 2" xmlns="http://www.w3.org/2000/svg" viewBox="0 0 39.54 37.56">
  <defs>
    <style>
      .cls-1 {
        fill: #c9331b;
      }

      .cls-1, .cls-2, .cls-3 {
        stroke-width: 0px;
      }

      .cls-2 {
        fill: #ef5b3b;
      }

      .cls-3 {
        fill: #ee754e;
      }
    </style>
  </defs>
  <g id="Layer_1-2" data-name="Layer 1">
    <g>
      <path class="cls-3" d="m38.23,19.79c-.66,1.43-1.58,2.77-2.76,3.95l-11.76,11.76-.75.75c-1.76,1.75-4.64,1.75-6.39,0l-.75-.75-11.78-11.76c-1.18-1.18-2.09-2.51-2.74-3.95C-1.1,14.63-.18,8.3,4.04,4.06,6.75,1.35,10.31,0,13.89,0c1.96,0,3.92,1.14,5.73,2.01.09.05.2.05.3,0,1.81-.86,3.77-2.01,5.73-2.01,3.58,0,7.12,1.35,9.83,4.06,4.24,4.24,5.16,10.57,2.76,15.73Z"/>
      <path class="cls-2" d="m35.15,19.62c-.55,1.19-1.32,2.31-2.29,3.29l-9.8,9.8-.63.62c-1.46,1.46-3.86,1.46-5.32,0l-.63-.62-9.81-9.8c-.98-.98-1.74-2.09-2.28-3.29-2-4.29-1.23-9.57,2.28-13.1,2.25-2.25,5.22-3.38,8.2-3.38,1.63,0,3.27.95,4.77,1.67.08.04.17.04.25,0,1.51-.72,3.14-1.67,4.77-1.67,2.98,0,5.93,1.13,8.19,3.38,3.53,3.53,4.29,8.8,2.29,13.1Z"/>
      <path class="cls-1" d="m32.3,19.46c-.45.97-1.07,1.88-1.87,2.68l-7.98,7.98-.51.51c-1.19,1.19-3.15,1.19-4.34,0l-.51-.51-7.99-7.98c-.8-.8-1.42-1.71-1.86-2.68-1.63-3.5-1.01-7.8,1.86-10.67,1.84-1.84,4.25-2.76,6.68-2.76,1.33,0,2.66.78,3.89,1.36.06.03.14.03.2,0,1.23-.59,2.56-1.36,3.89-1.36,2.43,0,4.83.92,6.67,2.76,2.88,2.88,3.5,7.17,1.87,10.67Z"/>
    </g>
  </g>
</svg>