<?xml version="1.0" encoding="UTF-8"?>
<svg id="Layer_2" data-name="Layer 2" xmlns="http://www.w3.org/2000/svg" viewBox="0 0 39.59 37.61">
  <defs>
    <style>
      .cls-1 {
        fill: #fff;
      }

      .cls-1, .cls-2, .cls-3, .cls-4 {
        stroke-width: 0px;
      }

      .cls-2 {
        fill: #fcd3df;
      }

      .cls-3 {
        fill: #f6a8c0;
      }

      .cls-4 {
        fill: #f66490;
      }
    </style>
  </defs>
  <g id="Layer_1-2" data-name="Layer 1">
    <g>
      <path class="cls-2" d="m38.28,19.81c-.66,1.44-1.58,2.77-2.76,3.95l-11.78,11.78-.75.75c-1.76,1.75-4.64,1.75-6.4,0l-.75-.75-11.79-11.78c-1.18-1.18-2.1-2.52-2.74-3.95C-1.1,14.65-.18,8.31,4.05,4.07,6.76,1.36,10.32,0,13.9,0c1.96,0,3.93,1.15,5.74,2.01.09.05.2.05.3,0,1.81-.86,3.78-2.01,5.74-2.01,3.58,0,7.13,1.36,9.84,4.07,4.24,4.24,5.16,10.58,2.76,15.75Z"/>
      <path class="cls-3" d="m35.17,19.64c-.55,1.19-1.32,2.31-2.29,3.29l-9.8,9.8-.63.62c-1.46,1.46-3.86,1.46-5.32,0l-.63-.62-9.81-9.8c-.98-.98-1.74-2.09-2.28-3.29-2-4.29-1.23-9.57,2.28-13.1,2.25-2.25,5.22-3.38,8.2-3.38,1.63,0,3.27.95,4.77,1.67.08.04.17.04.25,0,1.51-.72,3.14-1.67,4.77-1.67,2.98,0,5.93,1.13,8.19,3.38,3.53,3.53,4.29,8.8,2.29,13.1Z"/>
      <g>
        <path class="cls-4" d="m32.33,19.49c-.45.97-1.07,1.88-1.87,2.68l-7.98,7.98-.51.51c-1.19,1.19-3.15,1.19-4.34,0l-.51-.51-7.99-7.98c-.8-.8-1.42-1.71-1.86-2.68-1.63-3.5-1.01-7.8,1.86-10.67,1.84-1.84,4.25-2.76,6.68-2.76,1.33,0,2.66.78,3.89,1.36.06.03.14.03.2,0,1.23-.59,2.56-1.36,3.89-1.36,2.43,0,4.83.92,6.67,2.76,2.88,2.88,3.5,7.17,1.87,10.67Z"/>
        <path class="cls-1" d="m19.79,32.01c-.9,0-1.8-.34-2.49-1.03l-8.5-8.49c-.83-.83-1.49-1.78-1.95-2.82-1.75-3.76-.97-8.25,1.95-11.19,1.86-1.86,4.35-2.89,7.01-2.89,1.23,0,2.4.57,3.52,1.13l.47.23.47-.23c1.12-.56,2.29-1.13,3.52-1.13,2.65,0,5.13,1.03,7,2.89,2.93,2.93,3.71,7.42,1.96,11.19h0c-.48,1.05-1.14,1.99-1.96,2.81l-8.49,8.49c-.69.69-1.59,1.03-2.49,1.03Zm-3.99-25.5c-2.41,0-4.67.93-6.36,2.62-2.65,2.66-3.36,6.74-1.77,10.16.42.94,1.02,1.8,1.77,2.55l8.5,8.49c1.02,1.01,2.68,1.01,3.69,0l8.49-8.49c.74-.74,1.34-1.6,1.78-2.55h0c1.59-3.42.88-7.5-1.78-10.16-1.69-1.69-3.95-2.62-6.35-2.62-1.02,0-2.09.53-3.12,1.04l-.58.28c-.19.09-.41.09-.6,0l-.58-.28c-1.03-.51-2.1-1.04-3.12-1.04Z"/>
      </g>
    </g>
  </g>
</svg>