<?xml version="1.0" encoding="UTF-8"?>
<svg id="Layer_2" data-name="Layer 2" xmlns="http://www.w3.org/2000/svg" viewBox="0 0 32.5 30.87">
  <defs>
    <style>
      .cls-1 {
        fill: #b4d8d8;
      }

      .cls-1, .cls-2 {
        stroke-width: 0px;
      }

      .cls-2 {
        fill: #007f86;
      }
    </style>
  </defs>
  <g id="Layer_1-2" data-name="Layer 1">
    <g>
      <path class="cls-1" d="m31.43,16.26c-.54,1.18-1.3,2.28-2.26,3.24l-9.67,9.67-.62.62c-1.45,1.44-3.81,1.44-5.26,0l-.62-.62L3.32,19.51c-.97-.97-1.72-2.07-2.25-3.24C-.9,12.03-.15,6.82,3.32,3.34,5.55,1.11,8.47,0,11.42,0c1.61,0,3.22.94,4.71,1.65.08.04.17.04.24,0,1.49-.71,3.1-1.65,4.71-1.65,2.94,0,5.85,1.11,8.08,3.34,3.48,3.48,4.24,8.69,2.26,12.93Z"/>
      <path class="cls-2" d="m28.78,16.12c-.45.97-1.07,1.88-1.87,2.68l-7.98,7.98-.51.51c-1.19,1.19-3.15,1.19-4.34,0l-.51-.51-7.99-7.98c-.8-.8-1.42-1.71-1.86-2.68-1.63-3.5-1.01-7.8,1.86-10.67,1.84-1.84,4.25-2.76,6.68-2.76,1.33,0,2.66.78,3.89,1.36.06.03.14.03.2,0,1.23-.59,2.56-1.36,3.89-1.36,2.43,0,4.83.92,6.67,2.76,2.88,2.88,3.5,7.17,1.87,10.67Z"/>
    </g>
  </g>
</svg>